<?xml version="1.0" encoding="UTF-8" standalone="no"?>
<!-- Created with Inkscape (http://www.inkscape.org/) -->

<svg
   xmlns:dc="http://purl.org/dc/elements/1.1/"
   xmlns:cc="http://creativecommons.org/ns#"
   xmlns:rdf="http://www.w3.org/1999/02/22-rdf-syntax-ns#"
   xmlns:svg="http://www.w3.org/2000/svg"
   xmlns="http://www.w3.org/2000/svg"
   xmlns:xlink="http://www.w3.org/1999/xlink"
   xmlns:sodipodi="http://sodipodi.sourceforge.net/DTD/sodipodi-0.dtd"
   xmlns:inkscape="http://www.inkscape.org/namespaces/inkscape"
   width="128"
   height="128"
   id="svg3821"
   version="1.1"
   inkscape:version="0.48.1 r9760"
   sodipodi:docname="pop-up-icon2.svg"
   inkscape:export-filename="C:\Users\Alexey\Desktop\pop-up-icon2.png"
   inkscape:export-xdpi="90"
   inkscape:export-ydpi="90">
  <defs
     id="defs3823">
    <linearGradient
       inkscape:collect="always"
       id="linearGradient4436">
      <stop
         style="stop-color:#e3e3e3;stop-opacity:1"
         offset="0"
         id="stop4438" />
      <stop
         style="stop-color:#ffffff;stop-opacity:1"
         offset="1"
         id="stop4440" />
    </linearGradient>
    <linearGradient
       inkscape:collect="always"
       xlink:href="#linearGradient4436"
       id="linearGradient4442"
       x1="64"
       y1="44"
       x2="64"
       y2="-4"
       gradientUnits="userSpaceOnUse" />
    <linearGradient
       inkscape:collect="always"
       xlink:href="#linearGradient4436"
       id="linearGradient4551"
       gradientUnits="userSpaceOnUse"
       gradientTransform="translate(10.000001,939.36217)"
       x1="64"
       y1="48"
       x2="64"
       y2="-4" />
    <filter
       inkscape:collect="always"
       id="filter4739">
      <feGaussianBlur
         inkscape:collect="always"
         stdDeviation="0.83526611"
         id="feGaussianBlur4741" />
    </filter>
    <filter
       inkscape:collect="always"
       id="filter4747">
      <feGaussianBlur
         inkscape:collect="always"
         stdDeviation="1.0142326"
         id="feGaussianBlur4749" />
    </filter>
  </defs>
  <sodipodi:namedview
     id="base"
     pagecolor="#ffffff"
     bordercolor="#666666"
     borderopacity="1.0"
     inkscape:pageopacity="0.0"
     inkscape:pageshadow="2"
     inkscape:zoom="0.99999999"
     inkscape:cx="52.25"
     inkscape:cy="73.230519"
     inkscape:document-units="px"
     inkscape:current-layer="layer1"
     showgrid="false"
     showguides="true"
     inkscape:guide-bbox="true"
     inkscape:snap-global="true"
     inkscape:window-width="1366"
     inkscape:window-height="691"
     inkscape:window-x="0"
     inkscape:window-y="24"
     inkscape:window-maximized="1">
    <inkscape:grid
       type="xygrid"
       id="grid3855"
       empspacing="2"
       visible="true"
       enabled="true"
       snapvisiblegridlinesonly="true" />
  </sodipodi:namedview>
  <metadata
     id="metadata3826">
    <rdf:RDF>
      <cc:Work
         rdf:about="">
        <dc:format>image/svg+xml</dc:format>
        <dc:type
           rdf:resource="http://purl.org/dc/dcmitype/StillImage" />
        <dc:title></dc:title>
      </cc:Work>
    </rdf:RDF>
  </metadata>
  <g
     inkscape:label="Layer 1"
     inkscape:groupmode="layer"
     id="layer1"
     transform="translate(0,-924.36217)">
    <path
       style="fill:url(#linearGradient4442);fill-opacity:1;fill-rule:nonzero;stroke:#005aff;stroke-opacity:1;stroke-width:3;stroke-miterlimit:4;stroke-dasharray:none"
       d="M 26 6 C 14.92 6 6 14.92 6 26 L 6 84 C 6 95.08 14.92 104 26 104 L 52 104 L 64 120 L 76 104 L 102 104 C 113.08 104 122 95.08 122 84 L 122 26 C 122 14.92 113.08 6 102 6 L 26 6 z "
       id="rect3857"
       transform="translate(0,924.36217)" />
    <g
       style="font-size:40px;font-style:normal;font-weight:normal;line-height:125%;letter-spacing:0px;word-spacing:0px;fill:#000000;fill-opacity:1;stroke:none;filter:url(#filter4747);font-family:Sans"
       id="text4743">
      <path
         d="m 86.1427,939.71973 c 3.047668,1.30924 4.571511,2.62098 4.571533,3.93524 -2.2e-5,0.76704 -0.319439,1.94451 -0.958252,3.53241 1.423114,-0.4852 3.08276,-1.10369 4.978943,-1.85547 2.707897,-1.02943 4.42807,-1.54416 5.160523,-1.54419 1.634693,3e-5 2.452053,0.46644 2.452083,1.39923 -3e-5,0.92675 -0.57579,1.59559 -1.72729,2.00653 -3.405792,1.3367 -6.849188,2.40787 -10.330201,3.2135 -0.527976,0.116 -0.958273,0.20551 -1.290893,0.26856 -0.491354,2.10777 -0.765503,4.35996 -0.822449,6.75659 2.118915,-1.28477 4.250057,-2.1296 6.393432,-2.53449 -2.6e-5,0.13227 -2.6e-5,0.15058 0,0.0549 -2.6e-5,-0.82396 -0.303167,-1.69422 -0.909423,-2.61078 l 0.72174,-1.13221 c 2.373222,1.2014 3.559846,2.30207 3.559876,3.30201 0.04981,-0.0315 0.27005,-0.0473 0.660705,-0.0473 4.120853,3e-5 7.360293,0.9832 9.718323,2.94953 2.656,2.1098 3.98403,5.07153 3.98407,8.88519 -4e-5,2.67538 -0.82758,5.26276 -2.48261,7.76215 -1.44657,2.31425 -3.91239,4.32586 -7.39746,6.03485 -2.677437,1.43635 -5.471318,2.15453 -8.381649,2.15454 l 0,-1.81885 c 2.290825,-0.28687 4.564891,-0.96385 6.822209,-2.03094 2.68246,-1.46586 4.59896,-3.24351 5.74951,-5.33295 1.32137,-2.17081 1.98207,-4.42708 1.98211,-6.7688 -4e-5,-2.59601 -0.97355,-4.75564 -2.92053,-6.47888 -1.96231,-1.51467 -4.3203,-2.27202 -7.073973,-2.27203 -0.434397,10e-6 -0.739572,0.0122 -0.915527,0.0366 -0.351999,2.17083 -1.368233,4.73024 -3.048706,7.67822 -1.393661,2.55636 -2.98922,4.80703 -4.786682,6.75201 0.441465,1.25326 0.916522,2.24712 1.425171,2.98157 0.741553,0.99996 1.112341,1.73899 1.112365,2.2171 -2.4e-5,1.47502 -0.562055,2.21252 -1.686096,2.21253 -1.213604,-10e-6 -2.415995,-1.65965 -3.607177,-4.97895 0.03965,0.25941 -0.121581,0.5539 -0.483704,0.88349 -2.99379,2.7303 -5.587782,4.09545 -7.781983,4.09546 -1.14747,-10e-6 -2.046212,-0.22736 -2.696228,-0.68207 -0.860603,-0.57475 -1.40178,-1.43382 -1.623535,-2.57721 -0.09054,-0.84839 -0.251776,-1.51825 -0.483703,-2.00958 -0.219733,-0.51168 -0.329596,-1.02488 -0.32959,-1.53961 -6e-6,-1.88497 1.067091,-4.216 3.201294,-6.99311 2.218617,-2.69265 4.855841,-4.91942 7.911682,-6.6803 0.06,-2.8788 0.313297,-5.48296 0.759888,-7.8125 -1.164771,0.19229 -2.374283,0.28842 -3.62854,0.2884 -1.924654,2e-5 -3.399669,-0.27311 -4.425049,-0.8194 -1.264454,-0.68764 -2.011116,-1.54162 -2.23999,-2.56195 l 0.880432,-1.04218 c 0.94807,1.02135 2.477508,1.53201 4.588318,1.53199 1.270534,2e-5 3.047673,-0.20038 5.33142,-0.6012 0.428245,-2.08025 0.642377,-3.5044 0.642395,-4.27246 -1.8e-5,-0.92058 -0.430824,-1.85747 -1.292419,-2.81067 z m -1.275635,22.61505 c -2.103693,1.72425 -4.087842,3.82996 -5.952453,6.31714 -1.868702,2.61638 -2.803048,4.76837 -2.80304,6.45599 -8e-6,0.41199 0.194796,0.7899 0.584412,1.13373 0.431306,0.32247 0.967397,0.4837 1.608276,0.4837 1.42109,0 3.409309,-1.13729 5.964661,-3.41186 0.596093,-0.51168 1.189151,-1.05692 1.779175,-1.63575 -0.732439,-2.48005 -1.126116,-5.59437 -1.181031,-9.34295 z m 9.416199,-4.35639 c -1.774113,0.52391 -3.810651,1.44096 -6.109619,2.75116 0.05898,3.15452 0.30719,5.88533 0.744629,8.19245 0.772073,-1.41398 1.698789,-3.09854 2.780151,-5.05371 1.354956,-2.40986 2.216568,-4.37316 2.584839,-5.8899 z"
         style="font-size:50px;font-variant:normal;font-weight:bold;font-stretch:normal;fill:#000000;font-family:Tahoma;-inkscape-font-specification:Tahoma"
         id="path3018" />
    </g>
    <g
       style="font-size:40px;font-style:normal;font-weight:normal;line-height:125%;letter-spacing:0px;word-spacing:0px;fill:#fa4444;fill-opacity:1;stroke:none;font-family:Sans"
       id="text4465">
      <path
         d="m 86.1427,939.71973 c 3.047668,1.30924 4.571511,2.62098 4.571533,3.93524 -2.2e-5,0.76704 -0.319439,1.94451 -0.958252,3.53241 1.423114,-0.4852 3.08276,-1.10369 4.978943,-1.85547 2.707897,-1.02943 4.42807,-1.54416 5.160523,-1.54419 1.634693,3e-5 2.452053,0.46644 2.452083,1.39923 -3e-5,0.92675 -0.57579,1.59559 -1.72729,2.00653 -3.405792,1.3367 -6.849188,2.40787 -10.330201,3.2135 -0.527976,0.116 -0.958273,0.20551 -1.290893,0.26856 -0.491354,2.10777 -0.765503,4.35996 -0.822449,6.75659 2.118915,-1.28477 4.250057,-2.1296 6.393432,-2.53449 -2.6e-5,0.13227 -2.6e-5,0.15058 0,0.0549 -2.6e-5,-0.82396 -0.303167,-1.69422 -0.909423,-2.61078 l 0.72174,-1.13221 c 2.373222,1.2014 3.559846,2.30207 3.559876,3.30201 0.04981,-0.0315 0.27005,-0.0473 0.660705,-0.0473 4.120853,3e-5 7.360293,0.9832 9.718323,2.94953 2.656,2.1098 3.98403,5.07153 3.98407,8.88519 -4e-5,2.67538 -0.82758,5.26276 -2.48261,7.76215 -1.44657,2.31425 -3.91239,4.32586 -7.39746,6.03485 -2.677437,1.43635 -5.471318,2.15453 -8.381649,2.15454 l 0,-1.81885 c 2.290825,-0.28687 4.564891,-0.96385 6.822209,-2.03094 2.68246,-1.46586 4.59896,-3.24351 5.74951,-5.33295 1.32137,-2.17081 1.98207,-4.42708 1.98211,-6.7688 -4e-5,-2.59601 -0.97355,-4.75564 -2.92053,-6.47888 -1.96231,-1.51467 -4.3203,-2.27202 -7.073973,-2.27203 -0.434397,10e-6 -0.739572,0.0122 -0.915527,0.0366 -0.351999,2.17083 -1.368233,4.73024 -3.048706,7.67822 -1.393661,2.55636 -2.98922,4.80703 -4.786682,6.75201 0.441465,1.25326 0.916522,2.24712 1.425171,2.98157 0.741553,0.99996 1.112341,1.73899 1.112365,2.2171 -2.4e-5,1.47502 -0.562055,2.21252 -1.686096,2.21253 -1.213604,-10e-6 -2.415995,-1.65965 -3.607177,-4.97895 0.03965,0.25941 -0.121581,0.5539 -0.483704,0.88349 -2.99379,2.7303 -5.587782,4.09545 -7.781983,4.09546 -1.14747,-10e-6 -2.046212,-0.22736 -2.696228,-0.68207 -0.860603,-0.57475 -1.40178,-1.43382 -1.623535,-2.57721 -0.09054,-0.84839 -0.251776,-1.51825 -0.483703,-2.00958 -0.219733,-0.51168 -0.329596,-1.02488 -0.32959,-1.53961 -6e-6,-1.88497 1.067091,-4.216 3.201294,-6.99311 2.218617,-2.69265 4.855841,-4.91942 7.911682,-6.6803 0.06,-2.8788 0.313297,-5.48296 0.759888,-7.8125 -1.164771,0.19229 -2.374283,0.28842 -3.62854,0.2884 -1.924654,2e-5 -3.399669,-0.27311 -4.425049,-0.8194 -1.264454,-0.68764 -2.011116,-1.54162 -2.23999,-2.56195 l 0.880432,-1.04218 c 0.94807,1.02135 2.477508,1.53201 4.588318,1.53199 1.270534,2e-5 3.047673,-0.20038 5.33142,-0.6012 0.428245,-2.08025 0.642377,-3.5044 0.642395,-4.27246 -1.8e-5,-0.92058 -0.430824,-1.85747 -1.292419,-2.81067 z m -1.275635,22.61505 c -2.103693,1.72425 -4.087842,3.82996 -5.952453,6.31714 -1.868702,2.61638 -2.803048,4.76837 -2.80304,6.45599 -8e-6,0.41199 0.194796,0.7899 0.584412,1.13373 0.431306,0.32247 0.967397,0.4837 1.608276,0.4837 1.42109,0 3.409309,-1.13729 5.964661,-3.41186 0.596093,-0.51168 1.189151,-1.05692 1.779175,-1.63575 -0.732439,-2.48005 -1.126116,-5.59437 -1.181031,-9.34295 z m 9.416199,-4.35639 c -1.774113,0.52391 -3.810651,1.44096 -6.109619,2.75116 0.05898,3.15452 0.30719,5.88533 0.744629,8.19245 0.772073,-1.41398 1.698789,-3.09854 2.780151,-5.05371 1.354956,-2.40986 2.216568,-4.37316 2.584839,-5.8899 z"
         style="font-size:50px;font-variant:normal;font-weight:bold;font-stretch:normal;fill:#fa4444;font-family:Tahoma;-inkscape-font-specification:Tahoma;fill-opacity:1"
         id="path3015" />
    </g>
    <g
       style="font-size:40px;font-style:normal;font-weight:normal;line-height:125%;letter-spacing:0px;word-spacing:0px;fill:#000000;fill-opacity:1;stroke:none;filter:url(#filter4739);font-family:Sans"
       id="text4567">
      <path
         d="m 15.755859,1016.3622 12.25586,-36.35256 5.957031,0 12.255859,36.35256 -5.102539,0 -3.295898,-10.1563 -13.891602,0 -3.295898,10.1563 z M 36.483398,1002.08 30.868164,984.94128 25.277344,1002.08 z"
         style="font-size:50px;font-variant:normal;font-stretch:normal;fill:#000000;font-family:Tahoma;-inkscape-font-specification:Tahoma"
         id="path3012" />
    </g>
    <g
       style="font-size:40px;font-style:normal;font-weight:normal;line-height:125%;letter-spacing:0px;word-spacing:0px;fill:#3939ff;fill-opacity:1;stroke:none;font-family:Sans"
       id="text4469">
      <path
         d="m 15.755859,1016.3622 12.25586,-36.35256 5.957031,0 12.255859,36.35256 -5.102539,0 -3.295898,-10.1563 -13.891602,0 -3.295898,10.1563 z M 36.483398,1002.08 30.868164,984.94128 25.277344,1002.08 z"
         style="font-size:50px;font-variant:normal;font-stretch:normal;fill:#3939ff;font-family:Tahoma;-inkscape-font-specification:Tahoma;fill-opacity:1"
         id="path3009" />
    </g>
    <path
       style="fill:#727272;fill-opacity:1;stroke:none"
       d="M 94 64 C 94.142046 73.833172 80.912919 82.377572 64 85 L 64 78 L 54 87 L 64 96 L 64 89 C 89.836423 87.692589 102.97982 74.526686 106 64 L 94 64 z "
       transform="translate(0,924.36217)"
       id="path4497" />
    <path
       id="path4513"
       d="M 33.99997,973.36219 C 33.85792,963.52899 47.0871,954.98459 64,952.36217 l 0,7.00002 10.000005,-9.00002 -10.000005,-9 0,7 c -25.83645,1.30742 -38.97985,14.47332 -42.00003,25.00002 l 12,0 z"
       style="fill:#727272;fill-opacity:1;stroke:none"
       inkscape:connector-curvature="0" />
  </g>
</svg>
