<?xml version="1.0" encoding="UTF-8" standalone="no"?>
<!-- Created with Inkscape (http://www.inkscape.org/) -->

<svg
   xmlns:dc="http://purl.org/dc/elements/1.1/"
   xmlns:cc="http://creativecommons.org/ns#"
   xmlns:rdf="http://www.w3.org/1999/02/22-rdf-syntax-ns#"
   xmlns:svg="http://www.w3.org/2000/svg"
   xmlns="http://www.w3.org/2000/svg"
   xmlns:sodipodi="http://sodipodi.sourceforge.net/DTD/sodipodi-0.dtd"
   xmlns:inkscape="http://www.inkscape.org/namespaces/inkscape"
   width="200"
   height="200"
   id="svg2"
   version="1.1"
   inkscape:version="0.48.1 r9760"
   sodipodi:docname="pop-up-mockup.svg"
   inkscape:export-filename="/home/alexey/Projects/Pop-up-translate/pop-up-mockup.png"
   inkscape:export-xdpi="90"
   inkscape:export-ydpi="90">
  <defs
     id="defs4">
    <filter
       inkscape:collect="always"
       id="filter4028"
       x="-0.042000008"
       width="1.084"
       y="-0.10499995"
       height="1.2099999">
      <feGaussianBlur
         inkscape:collect="always"
         stdDeviation="2.6250005"
         id="feGaussianBlur4030" />
    </filter>
  </defs>
  <sodipodi:namedview
     id="base"
     pagecolor="#ffffff"
     bordercolor="#666666"
     borderopacity="1.0"
     inkscape:pageopacity="0.0"
     inkscape:pageshadow="2"
     inkscape:zoom="4"
     inkscape:cx="118.48193"
     inkscape:cy="123.54198"
     inkscape:document-units="px"
     inkscape:current-layer="layer1"
     showgrid="false"
     inkscape:snap-to-guides="false"
     inkscape:snap-grids="true"
     inkscape:snap-midpoints="false"
     inkscape:snap-object-midpoints="false"
     inkscape:snap-page="false"
     inkscape:window-width="1366"
     inkscape:window-height="691"
     inkscape:window-x="0"
     inkscape:window-y="24"
     inkscape:window-maximized="1"
     inkscape:snap-nodes="true"
     inkscape:snap-bbox="false"
     inkscape:bbox-paths="false"
     inkscape:snap-bbox-edge-midpoints="false"
     inkscape:bbox-nodes="false"
     inkscape:snap-bbox-midpoints="true"
     inkscape:snap-global="true">
    <inkscape:grid
       type="xygrid"
       id="grid2985"
       empspacing="5"
       visible="true"
       enabled="true"
       snapvisiblegridlinesonly="true"
       spacingx="1px"
       spacingy="1px"
       dotted="false" />
  </sodipodi:namedview>
  <metadata
     id="metadata7">
    <rdf:RDF>
      <cc:Work
         rdf:about="">
        <dc:format>image/svg+xml</dc:format>
        <dc:type
           rdf:resource="http://purl.org/dc/dcmitype/StillImage" />
        <dc:title />
      </cc:Work>
    </rdf:RDF>
  </metadata>
  <g
     inkscape:label="Layer 1"
     inkscape:groupmode="layer"
     id="layer1"
     transform="translate(0,-852.36218)">
    <g
       id="g3772">
      <path
         style="fill:#3c81ff;fill-opacity:1;stroke:none;filter:url(#filter4028)"
         d="m 24,880.36217 130,0 c 5.54,0 10,4.46 10,10 l 0,29.99993 c 0,5.54 -4.46,10 -10,10 -20.77968,0 -58,0 -58,0 l -7.49967,10.0001 -7.50196,-10.0001 c 0,0 -37.998915,0 -56.99837,0 -5.54,0 -9.999999,-4.46 -9.999999,-10 l 0,-29.99993 c 0,-5.54 4.459999,-10 9.999999,-10 z"
         id="path4026"
         inkscape:connector-curvature="0"
         sodipodi:nodetypes="sssscccccsss" />
      <path
         sodipodi:nodetypes="sssscccccsss"
         inkscape:connector-curvature="0"
         id="rect4013"
         d="m 24,880.36218 130,0 c 5.54,0 10,4.46 10,10 l 0,29.99992 c 0,5.54 -4.46,10 -10,10 -20.77968,0 -58,0 -58,0 l -7.499671,10.0001 -7.501961,-10.0001 c 0,0 -37.998913,0 -56.998368,0 -5.54,0 -9.999999,-4.46 -9.999999,-10 l 0,-29.99992 c 0,-5.54 4.459999,-10 9.999999,-10 z"
         style="fill:#e3e3e3;fill-opacity:1;stroke:none" />
      <text
         sodipodi:linespacing="125%"
         id="text3998-6"
         y="910.36218"
         x="35"
         style="font-size:20px;font-style:normal;font-weight:normal;line-height:125%;letter-spacing:0px;word-spacing:0px;fill:#727272;fill-opacity:1;stroke:none;font-family:Sans"
         xml:space="preserve"><tspan
           y="910.36218"
           x="35"
           id="tspan4000-5"
           sodipodi:role="line">Sample</tspan></text>
      <g
         transform="translate(25.455844,-102.53048)"
         id="g5631">
        <path
           style="fill:#727272;fill-opacity:1;stroke:none"
           d="m 105,1003.3622 5,0 5,-6.00002 0,20.00002 -5,-6 -5,0 z"
           id="path5633"
           inkscape:connector-curvature="0"
           sodipodi:nodetypes="ccccccc" />
        <path
           id="path5635"
           d="m 118.5,1003.8622 -1.40625,1.4062 c 0.55257,0.5347 0.90625,1.262 0.90625,2.0938 0,0.8317 -0.35368,1.559 -0.90625,2.0937 l 1.40625,1.4063 c 0.90886,-0.9003 1.5,-2.121 1.5,-3.5 0,-1.379 -0.59114,-2.5997 -1.5,-3.5 z"
           style="fill:#727272;fill-opacity:1;stroke:none"
           inkscape:connector-curvature="0" />
        <path
           id="path5637"
           d="m 121.0625,1000.2997 -1.4375,1.4375 c 1.45314,1.4435 2.375,3.4115 2.375,5.625 0,2.2134 -0.92186,4.1814 -2.375,5.625 l 1.4375,1.4375 c 1.81384,-1.8074 2.9375,-4.2939 2.9375,-7.0625 0,-2.7688 -1.12366,-5.2551 -2.9375,-7.0625 z"
           style="fill:#727272;fill-opacity:1;stroke:none"
           inkscape:connector-curvature="0" />
      </g>
    </g>
  </g>
</svg>
