<?xml version="1.0" encoding="UTF-8" standalone="no"?>
<!-- Created with Inkscape (http://www.inkscape.org/) -->

<svg
   xmlns:dc="http://purl.org/dc/elements/1.1/"
   xmlns:cc="http://creativecommons.org/ns#"
   xmlns:rdf="http://www.w3.org/1999/02/22-rdf-syntax-ns#"
   xmlns:svg="http://www.w3.org/2000/svg"
   xmlns="http://www.w3.org/2000/svg"
   xmlns:xlink="http://www.w3.org/1999/xlink"
   xmlns:sodipodi="http://sodipodi.sourceforge.net/DTD/sodipodi-0.dtd"
   xmlns:inkscape="http://www.inkscape.org/namespaces/inkscape"
   width="800"
   height="600"
   id="svg4045"
   version="1.1"
   inkscape:version="0.48.1 r9760"
   sodipodi:docname="settings-page.svg">
  <defs
     id="defs4047">
    <linearGradient
       id="linearGradient3895">
      <stop
         style="stop-color:#f7f7f7;stop-opacity:1;"
         offset="0"
         id="stop3897" />
      <stop
         style="stop-color:#e3e3e3;stop-opacity:1;"
         offset="1"
         id="stop3899" />
    </linearGradient>
    <linearGradient
       id="linearGradient4231">
      <stop
         style="stop-color:#9eff9e;stop-opacity:1;"
         offset="0"
         id="stop4233" />
      <stop
         style="stop-color:#1bff1b;stop-opacity:1;"
         offset="1"
         id="stop4235" />
    </linearGradient>
    <linearGradient
       id="linearGradient4023">
      <stop
         style="stop-color:#ffffff;stop-opacity:1"
         offset="0"
         id="stop4025" />
      <stop
         style="stop-color:#727272;stop-opacity:1"
         offset="1"
         id="stop4027" />
    </linearGradient>
    <linearGradient
       id="linearGradient3887">
      <stop
         id="stop3889"
         offset="0"
         style="stop-color:#4cc0ff;stop-opacity:1" />
      <stop
         id="stop3891"
         offset="1"
         style="stop-color:#afe3ff;stop-opacity:1" />
    </linearGradient>
    <linearGradient
       inkscape:collect="always"
       xlink:href="#linearGradient3887"
       id="linearGradient3822"
       x1="220"
       y1="570.36218"
       x2="220"
       y2="540.36218"
       gradientUnits="userSpaceOnUse" />
    <filter
       inkscape:collect="always"
       id="filter3877">
      <feGaussianBlur
         inkscape:collect="always"
         stdDeviation="2.95"
         id="feGaussianBlur3879" />
    </filter>
    <linearGradient
       inkscape:collect="always"
       xlink:href="#linearGradient4023"
       id="linearGradient4029"
       x1="432"
       y1="364.36218"
       x2="432"
       y2="492.36218"
       gradientUnits="userSpaceOnUse" />
    <linearGradient
       inkscape:collect="always"
       xlink:href="#linearGradient4231"
       id="linearGradient4249"
       gradientUnits="userSpaceOnUse"
       x1="108"
       y1="752.36218"
       x2="108"
       y2="784.36218" />
    <linearGradient
       inkscape:collect="always"
       xlink:href="#linearGradient3895"
       id="linearGradient3901"
       x1="292"
       y1="986.36218"
       x2="292"
       y2="1020.3622"
       gradientUnits="userSpaceOnUse" />
    <linearGradient
       inkscape:collect="always"
       xlink:href="#linearGradient4231"
       id="linearGradient3913"
       gradientUnits="userSpaceOnUse"
       x1="108"
       y1="752.36218"
       x2="108"
       y2="784.36218" />
  </defs>
  <sodipodi:namedview
     id="base"
     pagecolor="#ffffff"
     bordercolor="#666666"
     borderopacity="1.0"
     inkscape:pageopacity="0.0"
     inkscape:pageshadow="2"
     inkscape:zoom="1"
     inkscape:cx="350.14924"
     inkscape:cy="374.14209"
     inkscape:document-units="px"
     inkscape:current-layer="layer1"
     showgrid="false"
     inkscape:snap-grids="true"
     inkscape:snap-page="false"
     inkscape:window-width="1366"
     inkscape:window-height="691"
     inkscape:window-x="0"
     inkscape:window-y="24"
     inkscape:window-maximized="1"
     inkscape:snap-global="true"
     inkscape:snap-bbox="true"
     inkscape:snap-nodes="true"
     inkscape:bbox-paths="true"
     showguides="true"
     inkscape:guide-bbox="true">
    <inkscape:grid
       type="xygrid"
       id="grid4053"
       empspacing="2"
       visible="true"
       enabled="true"
       snapvisiblegridlinesonly="true" />
  </sodipodi:namedview>
  <metadata
     id="metadata4050">
    <rdf:RDF>
      <cc:Work
         rdf:about="">
        <dc:format>image/svg+xml</dc:format>
        <dc:type
           rdf:resource="http://purl.org/dc/dcmitype/StillImage" />
        <dc:title />
      </cc:Work>
    </rdf:RDF>
  </metadata>
  <g
     inkscape:label="Layer 1"
     inkscape:groupmode="layer"
     id="layer1"
     transform="translate(0,-452.36218)">
    <rect
       style="fill:url(#linearGradient4029);fill-opacity:1;stroke:none"
       id="rect4055"
       width="800"
       height="130"
       x="0"
       y="452.36218" />
    <rect
       y="540.36218"
       x="50"
       height="480"
       width="700"
       id="rect3875"
       style="fill:#727272;fill-opacity:1;stroke:none;filter:url(#filter3877)" />
    <rect
       style="fill:#f7f7f7;fill-opacity:1;stroke:none"
       id="rect4565"
       width="700"
       height="480"
       x="50"
       y="540.36218" />
    <rect
       style="fill:url(#linearGradient3822);fill-opacity:1;stroke:none"
       id="rect4672"
       width="700"
       height="30"
       x="50"
       y="540.36218" />
    <path
       style="fill:#006296;fill-opacity:1;stroke:none"
       d="m 50,540.36218 0,30 700,0 0,-30 -700,0 z m 1,1 698,0 0,28 -698,0 0,-28 z"
       id="rect3806"
       inkscape:connector-curvature="0" />
    <path
       style="fill:#ffffff;fill-opacity:1;stroke:none;opacity:0.7"
       d="m 51,541.36218 0,28 698,0 0,-28 -698,0 z m 1,1 696,0 0,26 -696,0 0,-26 z"
       id="rect3811"
       inkscape:connector-curvature="0" />
    <text
       sodipodi:linespacing="125%"
       id="text3966"
       y="484.85828"
       x="93"
       style="font-size:56px;font-style:normal;font-weight:bold;line-height:125%;letter-spacing:0px;word-spacing:0px;fill:#000000;fill-opacity:1;stroke:none;font-family:Sans;-inkscape-font-specification:Sans Bold"
       xml:space="preserve"><tspan
         style="font-size:18px;font-style:normal;font-variant:normal;font-weight:bold;font-stretch:normal;fill:#000000;stroke:none;font-family:Arimo;-inkscape-font-specification:Arimo Bold"
         y="484.85828"
         x="93"
         id="tspan3968"
         sodipodi:role="line">Pop-Up</tspan></text>
    <text
       xml:space="preserve"
       style="font-size:56px;font-style:normal;font-weight:bold;line-height:125%;letter-spacing:0px;word-spacing:0px;fill:#ffffff;fill-opacity:1;stroke:none;font-family:Sans;-inkscape-font-specification:Sans Bold"
       x="92"
       y="483.85828"
       id="text3838"
       sodipodi:linespacing="125%"><tspan
         sodipodi:role="line"
         id="tspan3840"
         x="92"
         y="483.85828"
         style="font-size:18px;font-style:normal;font-variant:normal;font-weight:bold;font-stretch:normal;fill:#ffffff;stroke:none;font-family:Arimo;-inkscape-font-specification:Arimo Bold">Pop-Up</tspan></text>
    <text
       xml:space="preserve"
       style="font-size:56px;font-style:normal;font-weight:normal;line-height:125%;letter-spacing:0px;word-spacing:0px;fill:#000000;fill-opacity:1;stroke:none;font-family:Sans;-inkscape-font-specification:Just Me Again Down Here"
       x="52.460941"
       y="518.37439"
       id="text3970"
       sodipodi:linespacing="125%"><tspan
         sodipodi:role="line"
         id="tspan3972"
         x="52.460941"
         y="518.37439"
         style="font-size:64px;font-style:normal;font-variant:normal;font-weight:normal;font-stretch:normal;fill:#000000;stroke:none;font-family:Just Me Again Down Here;-inkscape-font-specification:Just Me Again Down Here">Translate</tspan></text>
    <text
       sodipodi:linespacing="125%"
       id="text3846"
       y="517.37439"
       x="51.460941"
       style="font-size:56px;font-style:normal;font-weight:normal;line-height:125%;letter-spacing:0px;word-spacing:0px;fill:#ffffff;fill-opacity:1;stroke:none;font-family:Sans;-inkscape-font-specification:Just Me Again Down Here"
       xml:space="preserve"><tspan
         style="font-size:64px;font-style:normal;font-variant:normal;font-weight:normal;font-stretch:normal;fill:#ffffff;stroke:none;font-family:Just Me Again Down Here;-inkscape-font-specification:Just Me Again Down Here"
         y="517.37439"
         x="51.460941"
         id="tspan3848"
         sodipodi:role="line">Translate</tspan></text>
    <g
       id="g3941"
       transform="translate(80,0.78805542)">
      <text
         xml:space="preserve"
         style="font-size:12px;font-style:normal;font-weight:normal;line-height:125%;letter-spacing:0px;word-spacing:0px;fill:#727272;fill-opacity:1;stroke:none;font-family:Sans"
         x="59.353554"
         y="560.71576"
         id="text3937"
         sodipodi:linespacing="125%"><tspan
           sodipodi:role="line"
           id="tspan3939"
           x="59.353554"
           y="560.71576"
           style="font-size:16px;fill:#727272;fill-opacity:1">Shortcuts</tspan></text>
      <text
         sodipodi:linespacing="125%"
         id="text3893"
         y="560.36218"
         x="59"
         style="font-size:12px;font-style:normal;font-weight:normal;line-height:125%;letter-spacing:0px;word-spacing:0px;fill:#006296;fill-opacity:1;stroke:none;font-family:Sans"
         xml:space="preserve"><tspan
           style="font-size:16px;fill:#006296;fill-opacity:1"
           y="560.36218"
           x="59"
           id="tspan3895"
           sodipodi:role="line">Shortcuts</tspan></text>
    </g>
    <g
       id="g3947"
       transform="translate(202,-0.09460604)">
      <text
         sodipodi:linespacing="125%"
         id="text3905"
         y="561.21576"
         x="148.85355"
         style="font-size:12px;font-style:normal;font-weight:normal;line-height:125%;letter-spacing:0px;word-spacing:0px;fill:#727272;fill-opacity:1;stroke:none;font-family:Sans"
         xml:space="preserve"><tspan
           style="font-size:16px;fill:#727272;fill-opacity:1"
           y="561.21576"
           x="148.85355"
           id="tspan3907"
           sodipodi:role="line">Appearence</tspan></text>
      <text
         xml:space="preserve"
         style="font-size:12px;font-style:normal;font-weight:normal;line-height:125%;letter-spacing:0px;word-spacing:0px;fill:#006296;fill-opacity:1;stroke:none;font-family:Sans"
         x="148.5"
         y="560.86218"
         id="text3901"
         sodipodi:linespacing="125%"><tspan
           sodipodi:role="line"
           id="tspan3903"
           x="148.5"
           y="560.86218"
           style="font-size:16px;fill:#006296;fill-opacity:1">Appearence</tspan></text>
    </g>
    <rect
       y="540.36218"
       x="50"
       height="30"
       width="700"
       id="rect3957"
       style="fill:url(#linearGradient3822);fill-opacity:1;stroke:none" />
    <path
       inkscape:connector-curvature="0"
       id="path3959"
       d="m 50,540.36218 0,30 700,0 0,-30 -700,0 z m 1,1 698,0 0,28 -698,0 0,-28 z"
       style="fill:#006296;fill-opacity:1;stroke:none" />
    <path
       inkscape:connector-curvature="0"
       id="path3961"
       d="m 51,541.36218 0,28 698,0 0,-28 -698,0 z m 1,1 696,0 0,26 -696,0 0,-26 z"
       style="fill:#ffffff;fill-opacity:1;stroke:none;opacity:0.7" />
    <g
       transform="translate(202,-0.09460604)"
       id="g3973">
      <text
         xml:space="preserve"
         style="font-size:12px;font-style:normal;font-weight:normal;line-height:125%;letter-spacing:0px;word-spacing:0px;fill:#727272;fill-opacity:1;stroke:none;font-family:Sans"
         x="148.85355"
         y="561.21576"
         id="text3975"
         sodipodi:linespacing="125%"><tspan
           sodipodi:role="line"
           id="tspan3977"
           x="148.85355"
           y="561.21576"
           style="font-size:16px;font-style:normal;font-variant:normal;font-weight:normal;font-stretch:normal;fill:#727272;fill-opacity:1;font-family:Arimo;-inkscape-font-specification:Arimo">Appearence</tspan></text>
      <text
         sodipodi:linespacing="125%"
         id="text3979"
         y="560.86218"
         x="148.5"
         style="font-size:12px;font-style:normal;font-weight:normal;line-height:125%;letter-spacing:0px;word-spacing:0px;fill:#006296;fill-opacity:1;stroke:none;font-family:Sans"
         xml:space="preserve"><tspan
           style="font-size:16px;font-style:normal;font-variant:normal;font-weight:normal;font-stretch:normal;fill:#006296;fill-opacity:1;font-family:Arimo;-inkscape-font-specification:Arimo"
           y="560.86218"
           x="148.5"
           id="tspan3981"
           sodipodi:role="line">Appearence</tspan></text>
    </g>
    <path
       style="fill:#006296;fill-opacity:1;stroke:none"
       d="m 50,540.36218 0,30 224,0 0,-30 z m 0.319037,1 222.687673,0 0,28 -222.687673,0 z"
       id="path3985"
       inkscape:connector-curvature="0"
       sodipodi:nodetypes="cccccccccc" />
    <path
       style="opacity:0.7;fill:#ffffff;fill-opacity:1;stroke:none"
       d="m 50.319037,541.36218 0,28 222.687673,0 0,-28 z m 0.319037,1 221.361926,0 0,26 -221.361926,0 z"
       id="path3987"
       inkscape:connector-curvature="0"
       sodipodi:nodetypes="cccccccccc" />
    <path
       style="font-size:medium;font-style:normal;font-variant:normal;font-weight:normal;font-stretch:normal;text-indent:0;text-align:start;text-decoration:none;line-height:normal;letter-spacing:normal;word-spacing:normal;text-transform:none;direction:ltr;block-progression:tb;writing-mode:lr-tb;text-anchor:start;baseline-shift:baseline;opacity:0.7;color:#000000;fill:#ffffff;fill-opacity:1;fill-rule:nonzero;stroke:none;stroke-width:1px;marker:none;visibility:visible;display:inline;overflow:visible;enable-background:accumulate;font-family:Sans;-inkscape-font-specification:Sans"
       d="m 274,541.36218 0,28 1,0 0,-28 -1,0 z"
       id="path3991"
       inkscape:connector-curvature="0" />
    <path
       inkscape:connector-curvature="0"
       id="path3997"
       d="m 505,541.36218 0,28 1,0 0,-28 -1,0 z"
       style="font-size:medium;font-style:normal;font-variant:normal;font-weight:normal;font-stretch:normal;text-indent:0;text-align:start;text-decoration:none;line-height:normal;letter-spacing:normal;word-spacing:normal;text-transform:none;direction:ltr;block-progression:tb;writing-mode:lr-tb;text-anchor:start;baseline-shift:baseline;opacity:0.7;color:#000000;fill:#ffffff;fill-opacity:1;fill-rule:nonzero;stroke:none;stroke-width:1px;marker:none;visibility:visible;display:inline;overflow:visible;enable-background:accumulate;font-family:Sans;-inkscape-font-specification:Sans" />
    <path
       style="font-size:medium;font-style:normal;font-variant:normal;font-weight:normal;font-stretch:normal;text-indent:0;text-align:start;text-decoration:none;line-height:normal;letter-spacing:normal;word-spacing:normal;text-transform:none;direction:ltr;block-progression:tb;writing-mode:lr-tb;text-anchor:start;baseline-shift:baseline;opacity:0.7;color:#000000;fill:#ffffff;fill-opacity:1;fill-rule:nonzero;stroke:none;stroke-width:1px;marker:none;visibility:visible;display:inline;overflow:visible;enable-background:accumulate;font-family:Sans;-inkscape-font-specification:Sans"
       d="m 507,541.36218 0,28 1,0 0,-28 -1,0 z"
       id="path3999"
       inkscape:connector-curvature="0" />
    <path
       inkscape:connector-curvature="0"
       id="path4001"
       d="m 506,541.36218 0,28 1,0 0,-28 -1,0 z"
       style="font-size:medium;font-style:normal;font-variant:normal;font-weight:normal;font-stretch:normal;text-indent:0;text-align:start;text-decoration:none;line-height:normal;letter-spacing:normal;word-spacing:normal;text-transform:none;direction:ltr;block-progression:tb;writing-mode:lr-tb;text-anchor:start;baseline-shift:baseline;opacity:1;color:#000000;fill:#006296;fill-opacity:1;fill-rule:nonzero;stroke:none;stroke-width:1px;marker:none;visibility:visible;display:inline;overflow:visible;enable-background:accumulate;font-family:Sans;-inkscape-font-specification:Sans" />
    <g
       id="g4017"
       transform="translate(32,0)">
      <text
         sodipodi:linespacing="125%"
         id="text4005"
         y="561.12115"
         x="578.85352"
         style="font-size:12px;font-style:normal;font-weight:normal;line-height:125%;letter-spacing:0px;word-spacing:0px;fill:#727272;fill-opacity:1;stroke:none;font-family:Sans"
         xml:space="preserve"><tspan
           style="font-size:16px;font-style:normal;font-variant:normal;font-weight:normal;font-stretch:normal;fill:#727272;fill-opacity:1;font-family:Arimo;-inkscape-font-specification:Arimo"
           y="561.12115"
           x="578.85352"
           id="tspan4007"
           sodipodi:role="line">About</tspan></text>
      <text
         xml:space="preserve"
         style="font-size:12px;font-style:normal;font-weight:normal;line-height:125%;letter-spacing:0px;word-spacing:0px;fill:#006296;fill-opacity:1;stroke:none;font-family:Sans"
         x="578.5"
         y="560.76758"
         id="text4009"
         sodipodi:linespacing="125%"><tspan
           sodipodi:role="line"
           id="tspan4011"
           x="578.5"
           y="560.76758"
           style="font-size:16px;font-style:normal;font-variant:normal;font-weight:normal;font-stretch:normal;fill:#006296;fill-opacity:1;font-family:Arimo;-inkscape-font-specification:Arimo">About</tspan></text>
    </g>
    <text
       xml:space="preserve"
       style="font-size:12px;font-style:normal;font-weight:normal;line-height:125%;letter-spacing:0px;word-spacing:0px;fill:#727272;fill-opacity:1;stroke:none;font-family:Sans"
       x="80"
       y="616.36218"
       id="text4040"
       sodipodi:linespacing="125%"><tspan
         sodipodi:role="line"
         id="tspan4042"
         x="80"
         y="616.36218"
         style="font-size:24px;fill:#727272;fill-opacity:1;font-weight:bold;-inkscape-font-specification:Arimo Bold;font-family:Arimo;font-style:normal;font-stretch:normal;font-variant:normal">Shortcuts</tspan></text>
    <path
       style="fill:none;stroke:#727272;stroke-width:1.99999988000000006;stroke-linecap:butt;stroke-linejoin:miter;stroke-miterlimit:4;stroke-opacity:1;stroke-dasharray:none"
       d="m 80,624.36218 640,0"
       id="path4044"
       inkscape:connector-curvature="0"
       sodipodi:nodetypes="cc" />
    <rect
       style="fill:#f7f7f7;fill-opacity:1;stroke:none"
       id="rect4059"
       width="223.08211"
       height="37.588833"
       x="50.042892"
       y="540.36218" />
    <g
       transform="translate(73,0.78805496)"
       id="g3963">
      <text
         sodipodi:linespacing="125%"
         id="text3965"
         y="560.71576"
         x="59.353554"
         style="font-size:12px;font-style:normal;font-weight:normal;line-height:125%;letter-spacing:0px;word-spacing:0px;fill:#727272;fill-opacity:1;stroke:none;font-family:Sans"
         xml:space="preserve"><tspan
           style="font-size:16px;font-style:normal;font-variant:normal;font-weight:normal;font-stretch:normal;fill:#727272;fill-opacity:1;font-family:Arimo;-inkscape-font-specification:Arimo"
           y="560.71576"
           x="59.353554"
           id="tspan3967"
           sodipodi:role="line">General</tspan></text>
      <text
         xml:space="preserve"
         style="font-size:12px;font-style:normal;font-weight:normal;line-height:125%;letter-spacing:0px;word-spacing:0px;fill:#006296;fill-opacity:1;stroke:none;font-family:Sans"
         x="59"
         y="560.36218"
         id="text3969"
         sodipodi:linespacing="125%"><tspan
           sodipodi:role="line"
           id="tspan3971"
           x="59"
           y="560.36218"
           style="font-size:16px;font-style:normal;font-variant:normal;font-weight:normal;font-stretch:normal;fill:#006296;fill-opacity:1;font-family:Arimo;-inkscape-font-specification:Arimo">General</tspan></text>
    </g>
    <g
       id="g4129">
      <g
         transform="translate(-122.87016,4)"
         id="g4100">
        <path
           style="fill:none;stroke:#000000;stroke-width:1px;stroke-linecap:butt;stroke-linejoin:miter;stroke-opacity:1"
           d="m 204,192 0,16 76,0 0,-16 -76,0"
           id="path4094"
           inkscape:connector-curvature="0"
           transform="translate(0,452.36218)"
           sodipodi:nodetypes="ccccc" />
        <path
           style="fill:none;stroke:#000000;stroke-width:1px;stroke-linecap:butt;stroke-linejoin:miter;stroke-opacity:1"
           d="m 264,192 0,16"
           id="path4096"
           inkscape:connector-curvature="0"
           transform="translate(0,452.36218)" />
        <path
           style="fill:none;stroke:#000000;stroke-width:1px;stroke-linecap:butt;stroke-linejoin:miter;stroke-opacity:1"
           d="m 268,196 4,8 4,-8"
           id="path4098"
           inkscape:connector-curvature="0"
           transform="translate(0,452.36218)" />
      </g>
      <text
         sodipodi:linespacing="125%"
         id="text4105"
         y="661.13953"
         x="164.76152"
         style="font-size:12px;font-style:normal;font-weight:normal;line-height:125%;letter-spacing:0px;word-spacing:0px;fill:#000000;fill-opacity:1;stroke:none;font-family:Sans"
         xml:space="preserve"><tspan
           style="font-size:14px"
           y="661.13953"
           x="164.76152"
           id="tspan4107"
           sodipodi:role="line">+</tspan></text>
      <g
         id="g4109"
         transform="translate(-20.87016,4)">
        <path
           sodipodi:nodetypes="ccccc"
           transform="translate(0,452.36218)"
           inkscape:connector-curvature="0"
           id="path4111"
           d="m 204,192 0,16 76,0 0,-16 -76,0"
           style="fill:none;stroke:#000000;stroke-width:1px;stroke-linecap:butt;stroke-linejoin:miter;stroke-opacity:1" />
        <path
           transform="translate(0,452.36218)"
           inkscape:connector-curvature="0"
           id="path4113"
           d="m 264,192 0,16"
           style="fill:none;stroke:#000000;stroke-width:1px;stroke-linecap:butt;stroke-linejoin:miter;stroke-opacity:1" />
        <path
           transform="translate(0,452.36218)"
           inkscape:connector-curvature="0"
           id="path4115"
           d="m 268,196 4,8 4,-8"
           style="fill:none;stroke:#000000;stroke-width:1px;stroke-linecap:butt;stroke-linejoin:miter;stroke-opacity:1" />
      </g>
      <text
         xml:space="preserve"
         style="font-size:12px;font-style:normal;font-weight:normal;line-height:125%;letter-spacing:0px;word-spacing:0px;fill:#000000;fill-opacity:1;stroke:none;font-family:Sans"
         x="267.73212"
         y="661.13953"
         id="text4117"
         sodipodi:linespacing="125%"><tspan
           sodipodi:role="line"
           id="tspan4119"
           x="267.73212"
           y="661.13953"
           style="font-size:16px;-inkscape-font-specification:Arimo;font-family:Arimo;font-weight:normal;font-style:normal;font-stretch:normal;font-variant:normal">+ Select -- Translate to</tspan></text>
      <g
         transform="translate(231.12984,4)"
         id="g4121">
        <path
           style="fill:none;stroke:#000000;stroke-width:1px;stroke-linecap:butt;stroke-linejoin:miter;stroke-opacity:1"
           d="m 204,192 0,16 76,0 0,-16 -76,0"
           id="path4123"
           inkscape:connector-curvature="0"
           transform="translate(0,452.36218)"
           sodipodi:nodetypes="ccccc" />
        <path
           style="fill:none;stroke:#000000;stroke-width:1px;stroke-linecap:butt;stroke-linejoin:miter;stroke-opacity:1"
           d="m 264,192 0,16"
           id="path4125"
           inkscape:connector-curvature="0"
           transform="translate(0,452.36218)" />
        <path
           style="fill:none;stroke:#000000;stroke-width:1px;stroke-linecap:butt;stroke-linejoin:miter;stroke-opacity:1"
           d="m 268,196 4,8 4,-8"
           id="path4127"
           inkscape:connector-curvature="0"
           transform="translate(0,452.36218)" />
      </g>
    </g>
    <g
       id="g4147"
       transform="translate(0,34)">
      <g
         id="g4149"
         transform="translate(-122.87016,4)">
        <path
           sodipodi:nodetypes="ccccc"
           transform="translate(0,452.36218)"
           inkscape:connector-curvature="0"
           id="path4151"
           d="m 204,192 0,16 76,0 0,-16 -76,0"
           style="fill:none;stroke:#000000;stroke-width:1px;stroke-linecap:butt;stroke-linejoin:miter;stroke-opacity:1" />
        <path
           transform="translate(0,452.36218)"
           inkscape:connector-curvature="0"
           id="path4153"
           d="m 264,192 0,16"
           style="fill:none;stroke:#000000;stroke-width:1px;stroke-linecap:butt;stroke-linejoin:miter;stroke-opacity:1" />
        <path
           transform="translate(0,452.36218)"
           inkscape:connector-curvature="0"
           id="path4155"
           d="m 268,196 4,8 4,-8"
           style="fill:none;stroke:#000000;stroke-width:1px;stroke-linecap:butt;stroke-linejoin:miter;stroke-opacity:1" />
      </g>
      <text
         xml:space="preserve"
         style="font-size:12px;font-style:normal;font-weight:normal;line-height:125%;letter-spacing:0px;word-spacing:0px;fill:#000000;fill-opacity:1;stroke:none;font-family:Sans"
         x="164.76152"
         y="661.13953"
         id="text4157"
         sodipodi:linespacing="125%"><tspan
           sodipodi:role="line"
           id="tspan4159"
           x="164.76152"
           y="661.13953"
           style="font-size:14px">+</tspan></text>
      <g
         transform="translate(-20.87016,4)"
         id="g4161">
        <path
           style="fill:none;stroke:#000000;stroke-width:1px;stroke-linecap:butt;stroke-linejoin:miter;stroke-opacity:1"
           d="m 204,192 0,16 76,0 0,-16 -76,0"
           id="path4163"
           inkscape:connector-curvature="0"
           transform="translate(0,452.36218)"
           sodipodi:nodetypes="ccccc" />
        <path
           style="fill:none;stroke:#000000;stroke-width:1px;stroke-linecap:butt;stroke-linejoin:miter;stroke-opacity:1"
           d="m 264,192 0,16"
           id="path4165"
           inkscape:connector-curvature="0"
           transform="translate(0,452.36218)" />
        <path
           style="fill:none;stroke:#000000;stroke-width:1px;stroke-linecap:butt;stroke-linejoin:miter;stroke-opacity:1"
           d="m 268,196 4,8 4,-8"
           id="path4167"
           inkscape:connector-curvature="0"
           transform="translate(0,452.36218)" />
      </g>
      <text
         sodipodi:linespacing="125%"
         id="text4169"
         y="661.13953"
         x="267.73212"
         style="font-size:12px;font-style:normal;font-weight:normal;line-height:125%;letter-spacing:0px;word-spacing:0px;fill:#000000;fill-opacity:1;stroke:none;font-family:Sans"
         xml:space="preserve"><tspan
           style="font-size:16px;-inkscape-font-specification:Arimo;font-family:Arimo;font-weight:normal;font-style:normal;font-stretch:normal;font-variant:normal"
           y="661.13953"
           x="267.73212"
           id="tspan4171"
           sodipodi:role="line">+ Select -- Translate to</tspan></text>
      <g
         id="g4173"
         transform="translate(231.12984,4)">
        <path
           sodipodi:nodetypes="ccccc"
           transform="translate(0,452.36218)"
           inkscape:connector-curvature="0"
           id="path4175"
           d="m 204,192 0,16 76,0 0,-16 -76,0"
           style="fill:none;stroke:#000000;stroke-width:1px;stroke-linecap:butt;stroke-linejoin:miter;stroke-opacity:1" />
        <path
           transform="translate(0,452.36218)"
           inkscape:connector-curvature="0"
           id="path4177"
           d="m 264,192 0,16"
           style="fill:none;stroke:#000000;stroke-width:1px;stroke-linecap:butt;stroke-linejoin:miter;stroke-opacity:1" />
        <path
           transform="translate(0,452.36218)"
           inkscape:connector-curvature="0"
           id="path4179"
           d="m 268,196 4,8 4,-8"
           style="fill:none;stroke:#000000;stroke-width:1px;stroke-linecap:butt;stroke-linejoin:miter;stroke-opacity:1" />
      </g>
    </g>
    <g
       transform="translate(0,68)"
       id="g4181">
      <g
         transform="translate(-122.87016,4)"
         id="g4183">
        <path
           style="fill:none;stroke:#000000;stroke-width:1px;stroke-linecap:butt;stroke-linejoin:miter;stroke-opacity:1"
           d="m 204,192 0,16 76,0 0,-16 -76,0"
           id="path4185"
           inkscape:connector-curvature="0"
           transform="translate(0,452.36218)"
           sodipodi:nodetypes="ccccc" />
        <path
           style="fill:none;stroke:#000000;stroke-width:1px;stroke-linecap:butt;stroke-linejoin:miter;stroke-opacity:1"
           d="m 264,192 0,16"
           id="path4187"
           inkscape:connector-curvature="0"
           transform="translate(0,452.36218)" />
        <path
           style="fill:none;stroke:#000000;stroke-width:1px;stroke-linecap:butt;stroke-linejoin:miter;stroke-opacity:1"
           d="m 268,196 4,8 4,-8"
           id="path4189"
           inkscape:connector-curvature="0"
           transform="translate(0,452.36218)" />
      </g>
      <text
         sodipodi:linespacing="125%"
         id="text4191"
         y="661.13953"
         x="164.76152"
         style="font-size:12px;font-style:normal;font-weight:normal;line-height:125%;letter-spacing:0px;word-spacing:0px;fill:#000000;fill-opacity:1;stroke:none;font-family:Sans"
         xml:space="preserve"><tspan
           style="font-size:14px"
           y="661.13953"
           x="164.76152"
           id="tspan4193"
           sodipodi:role="line">+</tspan></text>
      <g
         id="g4195"
         transform="translate(-20.87016,4)">
        <path
           sodipodi:nodetypes="ccccc"
           transform="translate(0,452.36218)"
           inkscape:connector-curvature="0"
           id="path4197"
           d="m 204,192 0,16 76,0 0,-16 -76,0"
           style="fill:none;stroke:#000000;stroke-width:1px;stroke-linecap:butt;stroke-linejoin:miter;stroke-opacity:1" />
        <path
           transform="translate(0,452.36218)"
           inkscape:connector-curvature="0"
           id="path4199"
           d="m 264,192 0,16"
           style="fill:none;stroke:#000000;stroke-width:1px;stroke-linecap:butt;stroke-linejoin:miter;stroke-opacity:1" />
        <path
           transform="translate(0,452.36218)"
           inkscape:connector-curvature="0"
           id="path4201"
           d="m 268,196 4,8 4,-8"
           style="fill:none;stroke:#000000;stroke-width:1px;stroke-linecap:butt;stroke-linejoin:miter;stroke-opacity:1" />
      </g>
      <text
         xml:space="preserve"
         style="font-size:12px;font-style:normal;font-weight:normal;line-height:125%;letter-spacing:0px;word-spacing:0px;fill:#000000;fill-opacity:1;stroke:none;font-family:Sans"
         x="267.73212"
         y="661.13953"
         id="text4203"
         sodipodi:linespacing="125%"><tspan
           sodipodi:role="line"
           id="tspan4205"
           x="267.73212"
           y="661.13953"
           style="font-size:16px;-inkscape-font-specification:Arimo;font-family:Arimo;font-weight:normal;font-style:normal;font-stretch:normal;font-variant:normal">+ Select -- Translate to</tspan></text>
      <g
         transform="translate(231.12984,4)"
         id="g4207">
        <path
           style="fill:none;stroke:#000000;stroke-width:1px;stroke-linecap:butt;stroke-linejoin:miter;stroke-opacity:1"
           d="m 204,192 0,16 76,0 0,-16 -76,0"
           id="path4209"
           inkscape:connector-curvature="0"
           transform="translate(0,452.36218)"
           sodipodi:nodetypes="ccccc" />
        <path
           style="fill:none;stroke:#000000;stroke-width:1px;stroke-linecap:butt;stroke-linejoin:miter;stroke-opacity:1"
           d="m 264,192 0,16"
           id="path4211"
           inkscape:connector-curvature="0"
           transform="translate(0,452.36218)" />
        <path
           style="fill:none;stroke:#000000;stroke-width:1px;stroke-linecap:butt;stroke-linejoin:miter;stroke-opacity:1"
           d="m 268,196 4,8 4,-8"
           id="path4213"
           inkscape:connector-curvature="0"
           transform="translate(0,452.36218)" />
      </g>
    </g>
    <rect
       style="fill:url(#linearGradient4249);fill-opacity:1;stroke:none"
       id="rect4215"
       width="64"
       height="31.999998"
       x="80"
       y="752.36218"
       rx="5"
       ry="5" />
    <path
       style="fill:#007700;fill-opacity:1;stroke:none"
       d="m 85,752.36218 c -2.77,0 -5,2.23 -5,5 l 0,22 c 0,2.77 2.23,5 5,5 l 54,0 c 2.77,0 5,-2.23 5,-5 l 0,-22 c 0,-2.77 -2.23,-5 -5,-5 l -54,0 z m 0,1 54,0 c 2.216,0 4,1.784 4,4 l 0,22 c 0,2.216 -1.784,4 -4,4 l -54,0 c -2.216,0 -4,-1.784 -4,-4 l 0,-22 c 0,-2.216 1.784,-4 4,-4 z"
       id="rect4219"
       inkscape:connector-curvature="0" />
    <path
       style="opacity:0.7;fill:#ffffff;fill-opacity:1;stroke:none"
       d="m 85,753.36218 c -2.216,0 -4,1.784 -4,4 l 0,22 c 0,2.216 1.784,4 4,4 l 54,0 c 2.216,0 4,-1.784 4,-4 l 0,-22 c 0,-2.216 -1.784,-4 -4,-4 l -54,0 z m 0,1 54,0 c 1.662,0 3,1.338 3,3 l 0,22 c 0,1.662 -1.338,3 -3,3 l -54,0 c -1.662,0 -3,-1.338 -3,-3 l 0,-22 c 0,-1.662 1.338,-3 3,-3 z"
       id="rect4225"
       inkscape:connector-curvature="0" />
    <text
       sodipodi:linespacing="125%"
       id="text4255"
       y="774.32703"
       x="97.179688"
       style="font-size:12px;font-style:normal;font-weight:normal;line-height:125%;letter-spacing:0px;word-spacing:0px;fill:#003300;fill-opacity:1;stroke:none;font-family:Sans"
       xml:space="preserve"><tspan
         style="font-size:16px;fill:#003300;fill-opacity:1;-inkscape-font-specification:Arimo;font-family:Arimo;font-weight:normal;font-style:normal;font-stretch:normal;font-variant:normal"
         y="774.32703"
         x="97.179688"
         id="tspan4257"
         sodipodi:role="line">Add</tspan></text>
    <text
       xml:space="preserve"
       style="font-size:12px;font-style:normal;font-weight:normal;line-height:125%;letter-spacing:0px;word-spacing:0px;fill:#000000;fill-opacity:1;stroke:none;font-family:Sans"
       x="238"
       y="452"
       id="text4261"
       sodipodi:linespacing="125%"
       transform="translate(0,452.36218)"><tspan
         sodipodi:role="line"
         id="tspan4263"
         x="238"
         y="452" /></text>
    <path
       style="font-size:medium;font-style:normal;font-variant:normal;font-weight:normal;font-stretch:normal;text-indent:0;text-align:start;text-decoration:none;line-height:normal;letter-spacing:normal;word-spacing:normal;text-transform:none;direction:ltr;block-progression:tb;writing-mode:lr-tb;text-anchor:start;baseline-shift:baseline;color:#000000;fill:#ff2a2a;fill-opacity:1;stroke:none;stroke-width:2;marker:none;visibility:visible;display:inline;overflow:visible;enable-background:accumulate;font-family:Sans;-inkscape-font-specification:Sans"
       d="m 529.10934,648.36218 c -4.41828,0 -8,3.58172 -8,8 0,4.41828 3.58172,8 8,8 4.41828,0 8,-3.58172 8,-8 0,-4.41828 -3.58172,-8 -8,-8 z m 0,2 c 1.29831,0 2.4869,0.4241 3.46875,1.125 0.5491,0.39197 1.01651,0.8867 1.40625,1.4375 0.69208,0.97808 1.125,2.14817 1.125,3.4375 0,1.28933 -0.43292,2.45942 -1.125,3.4375 -0.38974,0.5508 -0.85715,1.04553 -1.40625,1.4375 -0.98185,0.7009 -2.17044,1.125 -3.46875,1.125 -1.28933,0 -2.45942,-0.43292 -3.4375,-1.125 -0.5508,-0.38974 -1.04553,-0.85715 -1.4375,-1.40625 -0.7009,-0.98185 -1.125,-2.17044 -1.125,-3.46875 0,-1.29831 0.4241,-2.4869 1.125,-3.46875 0.39197,-0.5491 0.8867,-1.01651 1.4375,-1.40625 0.97808,-0.69208 2.14817,-1.125 3.4375,-1.125 z m -3.4375,1.125 c -0.5508,0.38974 -1.04553,0.85715 -1.4375,1.40625 l 3.46875,3.46875 -3.46875,3.46875 c 0.39197,0.5491 0.8867,1.01651 1.4375,1.40625 l 3.4375,-3.4375 3.46875,3.4375 c 0.5491,-0.39197 1.01651,-0.8867 1.40625,-1.4375 l -3.4375,-3.4375 3.4375,-3.4375 c -0.38974,-0.5508 -0.85715,-1.04553 -1.40625,-1.4375 l -3.46875,3.4375 -3.4375,-3.4375 z"
       id="path4303"
       inkscape:connector-curvature="0" />
    <path
       inkscape:connector-curvature="0"
       id="path4322"
       d="m 529.10934,682.36218 c -4.41828,0 -8,3.58172 -8,8 0,4.41828 3.58172,8 8,8 4.41828,0 8,-3.58172 8,-8 0,-4.41828 -3.58172,-8 -8,-8 z m 0,2 c 1.29831,0 2.4869,0.4241 3.46875,1.125 0.5491,0.39197 1.01651,0.8867 1.40625,1.4375 0.69208,0.97808 1.125,2.14817 1.125,3.4375 0,1.28933 -0.43292,2.45942 -1.125,3.4375 -0.38974,0.5508 -0.85715,1.04553 -1.40625,1.4375 -0.98185,0.7009 -2.17044,1.125 -3.46875,1.125 -1.28933,0 -2.45942,-0.43292 -3.4375,-1.125 -0.5508,-0.38974 -1.04553,-0.85715 -1.4375,-1.40625 -0.7009,-0.98185 -1.125,-2.17044 -1.125,-3.46875 0,-1.29831 0.4241,-2.4869 1.125,-3.46875 0.39197,-0.5491 0.8867,-1.01651 1.4375,-1.40625 0.97808,-0.69208 2.14817,-1.125 3.4375,-1.125 z m -3.4375,1.125 c -0.5508,0.38974 -1.04553,0.85715 -1.4375,1.40625 l 3.46875,3.46875 -3.46875,3.46875 c 0.39197,0.5491 0.8867,1.01651 1.4375,1.40625 l 3.4375,-3.4375 3.46875,3.4375 c 0.5491,-0.39197 1.01651,-0.8867 1.40625,-1.4375 l -3.4375,-3.4375 3.4375,-3.4375 c -0.38974,-0.5508 -0.85715,-1.04553 -1.40625,-1.4375 l -3.46875,3.4375 -3.4375,-3.4375 z"
       style="font-size:medium;font-style:normal;font-variant:normal;font-weight:normal;font-stretch:normal;text-indent:0;text-align:start;text-decoration:none;line-height:normal;letter-spacing:normal;word-spacing:normal;text-transform:none;direction:ltr;block-progression:tb;writing-mode:lr-tb;text-anchor:start;baseline-shift:baseline;color:#000000;fill:#ff2a2a;fill-opacity:1;stroke:none;stroke-width:2;marker:none;visibility:visible;display:inline;overflow:visible;enable-background:accumulate;font-family:Sans;-inkscape-font-specification:Sans" />
    <path
       style="font-size:medium;font-style:normal;font-variant:normal;font-weight:normal;font-stretch:normal;text-indent:0;text-align:start;text-decoration:none;line-height:normal;letter-spacing:normal;word-spacing:normal;text-transform:none;direction:ltr;block-progression:tb;writing-mode:lr-tb;text-anchor:start;baseline-shift:baseline;color:#000000;fill:#ff2a2a;fill-opacity:1;stroke:none;stroke-width:2;marker:none;visibility:visible;display:inline;overflow:visible;enable-background:accumulate;font-family:Sans;-inkscape-font-specification:Sans"
       d="m 529.10934,716.36218 c -4.41828,0 -8,3.58172 -8,8 0,4.41828 3.58172,8 8,8 4.41828,0 8,-3.58172 8,-8 0,-4.41828 -3.58172,-8 -8,-8 z m 0,2 c 1.29831,0 2.4869,0.4241 3.46875,1.125 0.5491,0.39197 1.01651,0.8867 1.40625,1.4375 0.69208,0.97808 1.125,2.14817 1.125,3.4375 0,1.28933 -0.43292,2.45942 -1.125,3.4375 -0.38974,0.5508 -0.85715,1.04553 -1.40625,1.4375 -0.98185,0.7009 -2.17044,1.125 -3.46875,1.125 -1.28933,0 -2.45942,-0.43292 -3.4375,-1.125 -0.5508,-0.38974 -1.04553,-0.85715 -1.4375,-1.40625 -0.7009,-0.98185 -1.125,-2.17044 -1.125,-3.46875 0,-1.29831 0.4241,-2.4869 1.125,-3.46875 0.39197,-0.5491 0.8867,-1.01651 1.4375,-1.40625 0.97808,-0.69208 2.14817,-1.125 3.4375,-1.125 z m -3.4375,1.125 c -0.5508,0.38974 -1.04553,0.85715 -1.4375,1.40625 l 3.46875,3.46875 -3.46875,3.46875 c 0.39197,0.5491 0.8867,1.01651 1.4375,1.40625 l 3.4375,-3.4375 3.46875,3.4375 c 0.5491,-0.39197 1.01651,-0.8867 1.40625,-1.4375 l -3.4375,-3.4375 3.4375,-3.4375 c -0.38974,-0.5508 -0.85715,-1.04553 -1.40625,-1.4375 l -3.46875,3.4375 -3.4375,-3.4375 z"
       id="path4324"
       inkscape:connector-curvature="0" />
    <text
       sodipodi:linespacing="125%"
       id="text3115"
       y="824.36218"
       x="80"
       style="font-size:12px;font-style:normal;font-weight:normal;line-height:125%;letter-spacing:0px;word-spacing:0px;fill:#727272;fill-opacity:1;stroke:none;font-family:Sans"
       xml:space="preserve"><tspan
         style="font-size:24px;font-weight:bold;fill:#727272;fill-opacity:1;-inkscape-font-specification:Arimo Bold;font-family:Arimo;font-style:normal;font-stretch:normal;font-variant:normal"
         y="824.36218"
         x="80"
         id="tspan3117"
         sodipodi:role="line">Realtime</tspan></text>
    <path
       sodipodi:nodetypes="cc"
       inkscape:connector-curvature="0"
       id="path3119"
       d="m 80,832.36218 640,0"
       style="fill:none;stroke:#727272;stroke-width:1.99999988;stroke-linecap:butt;stroke-linejoin:miter;stroke-miterlimit:4;stroke-opacity:1;stroke-dasharray:none" />
    <rect
       y="986.66241"
       x="50"
       height="33.699745"
       width="700"
       id="rect3121"
       style="fill:url(#linearGradient3901);fill-opacity:1;stroke:none" />
    <path
       style="fill:none;stroke:#727272;stroke-width:1;stroke-linecap:butt;stroke-linejoin:miter;stroke-miterlimit:4;stroke-opacity:1;stroke-dasharray:none"
       d="m 50.545025,986.36218 698.932955,0"
       id="path3891"
       inkscape:connector-curvature="0"
       sodipodi:nodetypes="cc" />
    <path
       sodipodi:nodetypes="cc"
       inkscape:connector-curvature="0"
       id="path3893"
       d="m 50.545025,987.33447 698.932955,0"
       style="fill:none;stroke:#ffffff;stroke-width:1;stroke-linecap:butt;stroke-linejoin:miter;stroke-miterlimit:4;stroke-opacity:1;stroke-dasharray:none;opacity:0.7" />
  </g>
</svg>
